#!OML:ASF H:\Terrain\Patient Classification 1\Walking\steve\steve.ASF
:FULLY-SPECIFIED
:DEGREES
61
root 6.47162 15.392 -35.2506 8.3081 -6.2032 -0.658094
lowerback -4.19233 5.63963 0.162223
upperback -2.32969 7.52097 -2.01683
thorax 0.231242 3.75356 -1.81656
lowerneck -10.6628 -1.42243 -2.87006
upperneck 16.8651 -2.257 4.62058
head 6.99358 -0.860309 1.76413
rclavicle -7.35255e-014 1.86858e-014
rhumerus -29.5126 -0.333889 -86.7618
rradius 35.3912
rwrist -9.58862
rhand -21.4813 -37.5936
rfingers 7.12502
rthumb 4.90961 -67.5167
lclavicle -7.35255e-014 1.86858e-014
lhumerus -54.7598 14.8433 65.213
lradius 18.8575
lwrist 1.44004
lhand -21.1878 -13.895
lfingers 7.12502
lthumb 5.193 16.0214
rfemur 1.52515 6.40045 20.8344
rtibia 45.1653
rfoot 19.6297 2.70858
rtoes 4.27065
lfemur -36.0197 2.23079 -20.4742
ltibia 32.4506
lfoot -5.64621 2.2176
ltoes -0.152093
62
root 6.49149 15.4151 -35.0883 8.13559 -6.39112 -0.650365
lowerback -4.00925 5.65098 0.212164
upperback -2.23184 7.53471 -2.00546
thorax 0.235647 3.76059 -1.84455
lowerneck -11.018 -1.3596 -2.95173
upperneck 17.1141 -2.16527 4.66066
head 7.1344 -0.811543 1.79989
rclavicle 3.88624e-014 -4.77083e-015
rhumerus -30.2515 -0.812097 -86.7527
rradius 35.1691
rwrist -7.9247
rhand -20.3011 -38.051
rfingers 7.12502
rthumb 6.04914 -67.9446
lclavicle 3.88624e-014 -4.77083e-015
lhumerus -53.8242 15.4422 65.292
lradius 18.8086
lwrist 1.41128
lhand -22.892 -13.6668
lfingers 7.12502
lthumb 3.5474 16.2835
rfemur 0.436975 6.31882 20.6663
rtibia 47.5187
rfoot 20.3839 0.137573
rtoes 6.64002
lfemur -35.4479 2.38913 -20.6684
ltibia 33.037
lfoot -6.49187 2.02045
ltoes 1.07263
63
root 6.51224 15.4184 -34.9321 7.97187 -6.39604 -0.698176
lowerback -3.74922 5.62483 0.528849
upperback -2.20333 7.48996 -2.08794
thorax 0.170291 3.73608 -2.12713
lowerneck -10.965 -1.29972 -2.74427
upperneck 16.9943 -2.08701 4.49046
head 7.0793 -0.777393 1.71663
rclavicle 6.5102e-014 -2.78299e-015
rhumerus -30.9774 -1.61926 -86.768
rradius 34.5872
rwrist -6.26944
rhand -19.4125 -41.4606
rfingers 7.12502
rthumb 6.90695 -71.3279
lclavicle 6.5102e-014 -2.78299e-015
lhumerus -52.6799 14.943 66.1012
lradius 18.9326
lwrist 2.39301
lhand -22.6822 -13.0435
lfingers 7.12502
lthumb 3.75001 16.9032
rfemur -0.685243 5.93241 20.5588
rtibia 49.8681
rfoot 20.6636 -2.19294
rtoes 7.81677
lfemur -34.9433 2.32351 -20.7547
ltibia 33.5872
lfoot -7.15037 1.85405
ltoes 1.95414
64
root 6.52739 15.4302 -34.7856 7.99574 -6.28182 -0.839889
lowerback -3.44025 5.45394 0.677884
upperback -2.38565 7.25482 -2.00263
thorax -0.191099 3.61436 -2.17679
lowerneck -10.9794 -1.12917 -2.97459
upperneck 17.2276 -1.84172 4.61971
head 7.15051 -0.661297 1.82187
rclavicle -4.02912e-014 -2.78299e-015
rhumerus -31.9119 -1.69997 -86.9387
rradius 33.4303
rwrist -6.81309
rhand -21.3485 -40.6381
rfingers 7.12502
rthumb 5.03789 -70.5583
lclavicle -4.02912e-014 -2.78299e-015
lhumerus -52.0375 15.8442 65.6592
lradius 18.7173
lwrist 1.69686
lhand -21.3084 -12.9992
lfingers 7.12502
lthumb 5.07655 16.92
rfemur -2.05667 5.63864 20.6972
rtibia 52.1156
rfoot 21.061 -4.20318
rtoes 8.16414
lfemur -34.6341 2.27265 -20.791
ltibia 33.9847
lfoot -7.45126 1.85266
ltoes -1.20976
65
root 6.53759 15.4432 -34.6479 7.98032 -6.1846 -0.848647
lowerback -2.88684 5.25361 0.437102
upperback -2.65983 6.9891 -1.82539
thorax -0.842296 3.47898 -1.95131
lowerneck -10.8267 -1.07345 -3.38957
upperneck 17.3716 -1.71776 4.73212
head 7.16884 -0.620039 1.94084
rclavicle 4.24281e-014 -2.78299e-015
rhumerus -32.6267 -2.6552 -86.4483
rradius 32.2559
rwrist -4.0795
rhand -17.5938 -39.2568
rfingers 7.12502
rthumb 8.66239 -69.0591
lclavicle 4.24281e-014 -2.78299e-015
lhumerus -51.6288 17.0346 65.2677
lradius 18.5546
lwrist 1.10121
lhand -21.1305 -13.0617
lfingers 7.12502
lthumb 5.24834 16.8533
rfemur -3.4002 5.42821 20.7901
rtibia 54.16
rfoot 17.8459 -2.31292
rtoes 2.88637
lfemur -34.1763 1.3412 -20.63
ltibia 34.274
lfoot -8.25516 2.40779
ltoes -1.50858
66
root 6.55381 15.4494 -34.494 7.58495 -6.30521 -0.501701
lowerback -2.22204 5.15943 -0.00769942
upperback -2.79468 6.86478 -1.78903
thorax -1.41172 3.4192 -1.75222
lowerneck -10.5343 -1.06235 -3.74029
upperneck 17.3918 -1.67911 4.90369
head 7.12553 -0.61294 2.05944
rclavicle 2.75814e-014 3.57812e-015
rhumerus -33.3021 -3.47139 -86.2291
rradius 30.9703
rwrist -2.8187
rhand -15.9977 -36.9979
rfingers 7.12502
rthumb 10.2024 -66.7305
lclavicle 2.75814e-014 3.57812e-015
lhumerus -51.1195 17.3179 65.662
lradius 18.7629
lwrist 1.70651
lhand -21.4169 -13.0596
lfingers 7.12502
lthumb 4.97185 16.8621
rfemur -4.22778 5.33408 20.453
rtibia 56.0062
rfoot 16.7245 -0.217616
rtoes -5.06767
lfemur -33.1369 0.518521 -20.8787
ltibia 34.4498
lfoot -9.28694 2.68701
ltoes 1.35028
67
root 6.56546 15.4537 -34.333 7.12911 -6.54715 -0.273945
lowerback -1.82615 5.12444 -0.269576
upperback -2.75726 6.81678 -1.7678
thorax -1.62819 3.39831 -1.62685
lowerneck -10.353 -1.01617 -3.80026
upperneck 17.4481 -1.6194 4.94248
head 7.10932 -0.586923 2.08827
rclavicle 3.54085e-015 7.15625e-015
rhumerus -34.1224 -3.47313 -86.5303
rradius 30.3662
rwrist -3.60998
rhand -18.0997 -38.1368
rfingers 7.12502
rthumb 8.17409 -67.9587
lclavicle 3.54085e-015 7.15625e-015
lhumerus -50.3592 18.1736 65.5563
lradius 18.6505
lwrist 1.57253
lhand -21.4444 -11.8833
lfingers 7.12502
lthumb 4.94529 18.039
rfemur -4.88013 5.42718 20.2538
rtibia 57.684
rfoot 15.4516 2.20365
rtoes -14.6079
lfemur -32.0205 0.450175 -21.21
ltibia 34.5183
lfoot -9.94801 2.80691
ltoes -1.62942
68
root 6.57353 15.4562 -34.1802 7.04796 -6.60836 -0.230095
lowerback -1.89235 5.00597 -0.357494
upperback -2.68103 6.6613 -1.70734
thorax -1.53366 3.32298 -1.50789
lowerneck -10.3912 -0.979386 -3.61941
upperneck 17.5125 -1.54873 4.65224
head 7.13056 -0.566109 1.97041
rclavicle 1.33807e-014 -3.57812e-015
rhumerus -34.8543 -2.95842 -86.9348
rradius 30.1433
rwrist -4.83389
rhand -20.5447 -38.9994
rfingers 7.12502
rthumb 5.81393 -68.8997
lclavicle 1.33807e-014 -3.57812e-015
lhumerus -49.4254 19.3025 65.501
lradius 18.6054
lwrist 1.21086
lhand -21.8334 -10.8899
lfingers 7.12502
lthumb 4.5696 19.0409
rfemur -6.09504 5.20912 20.1946
rtibia 59.333
rfoot 12.962 -3.06277
rtoes 7.39792
lfemur -31.2693 0.208429 -21.2739
ltibia 34.4798
lfoot -10.6222 2.73831
ltoes -2.04819
